<svg width="51" height="56" viewBox="0 0 51 56" fill="none" xmlns="http://www.w3.org/2000/svg">
<path d="M1.39883 1.15234C0.752723 1.79845 0.537354 2.8753 0.537354 4.16753V51.7643C0.537354 53.0566 0.968094 54.1334 1.6142 54.7795L1.82958 54.9949L28.5355 28.289V27.8583L1.39883 1.15234Z" fill="url(#paint0_linear_91_2688)"/>
<path d="M37.15 37.3345L28.3198 28.5044V27.8583L37.15 19.0281L37.3654 19.2434L47.9185 25.2738C50.9337 26.9968 50.9337 29.7966 47.9185 31.5195L37.15 37.3345Z" fill="url(#paint1_linear_91_2688)"/>
<path d="M37.3655 37.1193L28.32 28.0737L1.39868 54.995C2.47553 56.0719 3.98313 56.0719 5.92146 55.2104L37.3655 37.1193Z" fill="url(#paint2_linear_91_2688)"/>
<path d="M37.3655 19.028L5.92146 1.15231C3.98313 0.0754615 2.47553 0.290831 1.39868 1.36768L28.32 28.0736L37.3655 19.028Z" fill="url(#paint3_linear_91_2688)"/>
<path opacity="0.2" d="M37.1501 36.9038L5.92146 54.5642C4.1985 55.641 2.6909 55.4256 1.61405 54.5642L1.39868 54.7795L1.61405 54.9949C2.6909 55.8564 4.1985 56.0718 5.92146 54.9949L37.1501 36.9038Z" fill="black"/>
<path opacity="0.12" d="M1.39883 54.5643C0.752723 53.9182 0.537354 52.8413 0.537354 51.5491V51.7645C0.537354 53.0567 0.968094 54.1335 1.6142 54.7796V54.5643H1.39883ZM47.9188 30.8735L37.1503 36.9039L37.3657 37.1193L47.9188 31.0889C49.4264 30.2274 50.0725 29.1506 50.0725 28.0737C50.0725 29.1506 49.211 30.0121 47.9188 30.8735Z" fill="black"/>
<path opacity="0.25" d="M5.92136 1.36804L47.9186 25.2741C49.2108 26.1356 50.0723 26.9971 50.0723 28.0739C50.0723 26.9971 49.4261 25.9202 47.9186 25.0588L5.92136 1.15267C2.90618 -0.570293 0.537109 0.721927 0.537109 4.16785V4.38322C0.537109 1.15267 2.90618 -0.354923 5.92136 1.36804Z" fill="white"/>
<defs>
<linearGradient id="paint0_linear_91_2688" x1="25.951" y1="3.75832" x2="-10.1945" y2="39.9018" gradientUnits="userSpaceOnUse">
<stop stop-color="#00A0FF"/>
<stop offset="0.007" stop-color="#00A1FF"/>
<stop offset="0.26" stop-color="#00BEFF"/>
<stop offset="0.512" stop-color="#00D2FF"/>
<stop offset="0.76" stop-color="#00DFFF"/>
<stop offset="1" stop-color="#00E3FF"/>
</linearGradient>
<linearGradient id="paint1_linear_91_2688" x1="51.8684" y1="28.0758" x2="-0.244729" y2="28.0758" gradientUnits="userSpaceOnUse">
<stop stop-color="#FFE000"/>
<stop offset="0.409" stop-color="#FFBD00"/>
<stop offset="0.775" stop-color="#FFA500"/>
<stop offset="1" stop-color="#FF9C00"/>
</linearGradient>
<linearGradient id="paint2_linear_91_2688" x1="32.4701" y1="33.0186" x2="-16.5438" y2="82.0326" gradientUnits="userSpaceOnUse">
<stop stop-color="#FF3A44"/>
<stop offset="1" stop-color="#C31162"/>
</linearGradient>
<linearGradient id="paint3_linear_91_2688" x1="-5.28426" y1="-14.6214" x2="16.6038" y2="7.26668" gradientUnits="userSpaceOnUse">
<stop stop-color="#32A071"/>
<stop offset="0.069" stop-color="#2DA771"/>
<stop offset="0.476" stop-color="#15CF74"/>
<stop offset="0.801" stop-color="#06E775"/>
<stop offset="1" stop-color="#00F076"/>
</linearGradient>
</defs>
</svg>
