<svg width="46" height="56" viewBox="0 0 46 56" fill="none" xmlns="http://www.w3.org/2000/svg">
<path d="M37.6889 29.6316C37.6264 22.6865 43.3771 19.3076 43.6401 19.1503C40.3832 14.4031 35.3352 13.7545 33.5613 13.7028C29.3215 13.2567 25.2089 16.2391 23.0492 16.2391C20.8463 16.2391 17.5205 13.7459 13.936 13.8192C9.32334 13.8903 5.00815 16.5602 2.64148 20.7061C-2.24275 29.1597 1.39995 41.5825 6.07941 48.4156C8.42022 51.7643 11.1555 55.4986 14.7357 55.3672C18.2382 55.225 19.5466 53.1369 23.7734 53.1369C27.9614 53.1369 29.19 55.3672 32.8413 55.2832C36.6004 55.225 38.9671 51.9216 41.226 48.5449C43.9311 44.7114 45.0174 40.9317 45.0605 40.7378C44.9743 40.7076 37.7622 37.9537 37.6889 29.6316ZM30.7915 9.20774C32.6754 6.85247 33.9643 3.64818 33.6065 0.396484C30.8799 0.517157 27.47 2.282 25.5064 4.58555C23.7691 6.61544 22.2172 9.94255 22.6181 13.0714C25.681 13.2998 28.8258 11.5264 30.7915 9.20774Z" fill="white"/>
</svg>
