<svg width="45" height="39" viewBox="0 0 45 39" fill="none" xmlns="http://www.w3.org/2000/svg">
<path d="M42.9916 5.89072C42.9889 5.89072 42.9862 5.89039 42.9836 5.89039L31.4397 5.89039L31.4397 4.61716C31.4397 2.51104 29.7261 0.797485 27.62 0.797485L17.4342 0.797485C15.3281 0.797485 13.6145 2.51104 13.6145 4.61716L13.6145 5.89039L2.07059 5.89039C1.36169 5.89039 0.797363 6.4713 0.797363 7.16362L0.797363 35.1746C0.797363 37.2807 2.51091 38.9943 4.61704 38.9943L40.4371 38.9943C42.5433 38.9943 44.2568 37.2807 44.2568 35.1746L44.2568 7.19047L44.2568 7.1855C44.2081 6.34928 43.6938 5.89536 42.9916 5.89072ZM16.161 4.61716C16.161 3.91523 16.7323 3.34394 17.4342 3.34394L27.62 3.34394C28.3219 3.34394 28.8932 3.91523 28.8932 4.61716L28.8932 5.89039L16.161 5.89039L16.161 4.61716ZM41.217 8.43684L37.263 20.2984C37.0896 20.8193 36.6042 21.1691 36.0555 21.1691L28.8932 21.1691L28.8932 19.8959C28.8932 19.1926 28.3233 18.6227 27.62 18.6227L17.4342 18.6227C16.7309 18.6227 16.161 19.1926 16.161 19.8959L16.161 21.1691L8.99873 21.1691C8.44998 21.1691 7.96457 20.8193 7.79116 20.2984L3.83719 8.43684L41.217 8.43684ZM26.3468 21.1691L26.3468 23.7156L18.7074 23.7156L18.7074 21.1691L26.3468 21.1691ZM41.7104 35.1746C41.7104 35.8765 41.1391 36.4478 40.4371 36.4478L4.61704 36.4478C3.91511 36.4478 3.34382 35.8765 3.34382 35.1746L3.34382 15.0095L5.37534 21.1038C5.89591 22.6661 7.35216 23.7156 8.99873 23.7156L16.161 23.7156L16.161 24.9888C16.161 25.692 16.7309 26.262 17.4342 26.262L27.62 26.262C28.3233 26.262 28.8932 25.692 28.8932 24.9888L28.8932 23.7156L36.0555 23.7156C37.702 23.7156 39.1583 22.6661 39.6788 21.1038L41.7104 15.0095L41.7104 35.1746Z" fill="#366059"/>
</svg>
