<svg width="33" height="32" viewBox="0 0 33 32" fill="none" xmlns="http://www.w3.org/2000/svg">
<path d="M11.7765 15.7464C12.8332 17.8374 14.5843 19.5247 16.7495 20.5379C16.9079 20.6106 17.0831 20.642 17.2579 20.6292C17.4327 20.6164 17.601 20.5598 17.7463 20.4649L20.9343 18.4073C21.0753 18.3163 21.2376 18.2608 21.4063 18.2458C21.5751 18.2308 21.745 18.2568 21.9008 18.3214L27.8649 20.7954C28.0675 20.8787 28.2367 21.0235 28.3469 21.2079C28.4571 21.3923 28.5024 21.6064 28.4759 21.818C28.2874 23.2457 27.5677 24.558 26.4515 25.5091C25.3354 26.4602 23.8993 26.9849 22.4122 26.985C17.8192 26.985 13.4143 25.219 10.1666 22.0755C6.91881 18.932 5.09424 14.6685 5.09424 10.2229C5.09432 8.78357 5.63644 7.3936 6.61909 6.31327C7.60174 5.23293 8.95754 4.53632 10.4326 4.35386C10.6512 4.32826 10.8724 4.3721 11.0629 4.47876C11.2535 4.58543 11.4031 4.74915 11.4891 4.94524L14.0474 10.723C14.1136 10.8724 14.1405 11.0354 14.1259 11.1973C14.1112 11.3593 14.0554 11.5153 13.9635 11.6513L11.845 14.7843C11.7486 14.9252 11.6916 15.088 11.6796 15.2566C11.6676 15.4253 11.7009 15.594 11.7765 15.7464V15.7464Z" stroke="#8C959F" stroke-width="1.97201" stroke-linecap="round" stroke-linejoin="round"/>
</svg>
