<svg width="48" height="43" viewBox="0 0 48 43" fill="none" xmlns="http://www.w3.org/2000/svg">
<path d="M46.6025 5.62537C46.5996 5.62537 46.5967 5.625 46.5938 5.625H33.8438V4.21875C33.8438 1.89258 31.9512 0 29.625 0H18.375C16.0488 0 14.1563 1.89258 14.1563 4.21875V5.625H1.40625C0.623291 5.625 0 6.2666 0 7.03125V37.9688C0 40.2949 1.89258 42.1875 4.21875 42.1875H43.7813C46.1074 42.1875 48 40.2949 48 37.9688V7.06091V7.05542C47.9462 6.13184 47.3782 5.63049 46.6025 5.62537ZM16.9688 4.21875C16.9688 3.44348 17.5997 2.8125 18.375 2.8125H29.625C30.4003 2.8125 31.0313 3.44348 31.0313 4.21875V5.625H16.9688V4.21875ZM44.6426 8.4375L40.2755 21.5383C40.084 22.1136 39.5479 22.5 38.9418 22.5H31.0313V21.0938C31.0313 20.317 30.4017 19.6875 29.625 19.6875H18.375C17.5983 19.6875 16.9688 20.317 16.9688 21.0938V22.5H9.05823C8.45215 22.5 7.91602 22.1136 7.72449 21.5383L3.35742 8.4375H44.6426ZM28.2188 22.5V25.3125H19.7813V22.5H28.2188ZM45.1875 37.9688C45.1875 38.744 44.5565 39.375 43.7813 39.375H4.21875C3.44348 39.375 2.8125 38.744 2.8125 37.9688V15.6969L5.05627 22.4279C5.63123 24.1534 7.23962 25.3125 9.05823 25.3125H16.9688V26.7188C16.9688 27.4955 17.5983 28.125 18.375 28.125H29.625C30.4017 28.125 31.0313 27.4955 31.0313 26.7188V25.3125H38.9418C40.7604 25.3125 42.3688 24.1534 42.9437 22.4279L45.1875 15.6969V37.9688Z" fill="#366059"/>
</svg>
